<?xml version="1.0" encoding="utf-8"?>
<!-- Generator: Adobe Illustrator 22.0.0, SVG Export Plug-In . SVG Version: 6.00 Build 0)  -->
<svg version="1.1" id="图层_1" xmlns="http://www.w3.org/2000/svg" xmlns:xlink="http://www.w3.org/1999/xlink" x="0px" y="0px"
	 viewBox="0 0 60 60" style="enable-background:new 0 0 60 60;" xml:space="preserve">
<style type="text/css">
	.st0{fill:#FFFFFF;}
	.st1{opacity:0.57;fill:#FFFFFF;enable-background:new    ;}
</style>
<g>
	<path class="st0" d="M45.2,18.3c1,2,1,4.1,1,6.1c0,6.1-5.1,10.2-10.2,10.2c-3.1,0-5.1-1-7.1-3.1c-2-2-3.1-4.1-3.1-7.1
		c0-6.1,5.1-10.2,10.2-10.2c2,0,4.1,1,5.1,2l7.1-7.1c-5.1-2-19.3-5.1-29.5,5.1C10.6,22.4,8.6,46.8,8.6,46.8l-8.1,2l8.1,3.1l3.1,8.1
		l0,0l2-9.2c0,0,24.4-2,32.5-10.2c10.2-10.2,7.1-24.4,5.1-29.5L45.2,18.3z"/>
</g>
<circle class="st1" cx="55.4" cy="4.1" r="4.1"/>
<circle class="st0" cx="36.1" cy="24.4" r="6.3"/>
</svg>
