<?xml version="1.0" encoding="utf-8"?>
<!-- Generator: Adobe Illustrator 23.0.2, SVG Export Plug-In . SVG Version: 6.00 Build 0)  -->
<svg version="1.1" id="图层_1" xmlns="http://www.w3.org/2000/svg" xmlns:xlink="http://www.w3.org/1999/xlink" x="0px" y="0px"
	 viewBox="0 0 149 54.9" style="enable-background:new 0 0 149 54.9;" xml:space="preserve">
<style type="text/css">
	.st0{fill:#4778C7;}
	.st1{opacity:0.57;fill:#4778C7;enable-background:new    ;}
</style>
<g>
	<path class="st0" d="M41.4,16.5c1,1.5,1.5,3.3,1.5,5.2c0,5.3-4.3,9.6-9.6,9.6c-2.7,0-5.1-1.1-6.8-2.8c-1.7-1.7-2.8-4.1-2.8-6.8
		c0-5.3,4.3-9.6,9.6-9.6c1.9,0,3.7,0.6,5.2,1.5l6.2-6.2c-5.1-1.6-18-4.3-27.3,5C10,19.7,8.2,42.1,8.2,42.1L0,44.2l7.4,3.3l3.2,7.4
		l0,0l2-8.2c0,0,22.5-1.8,29.8-9.1c9.3-9.3,6.6-22.2,5-27.3L41.4,16.5z"/>
	<path class="st0" d="M33.3,16.2c-3,0-5.4,2.4-5.4,5.4s2.4,5.4,5.4,5.4s5.4-2.4,5.4-5.4c0-1.5-0.6-2.9-1.6-3.8
		C36.1,16.8,34.8,16.2,33.3,16.2z"/>
</g>
<circle class="st1" cx="51.5" cy="3.5" r="3.3"/>
<g>
	<path class="st0" d="M121.7,21.1H112l0,0h-4.1v20.3h4.1l0,0h9.8c3.1,0,5.7-2.6,5.7-5.7v-0.8c0-1.4-0.5-2.7-1.3-3.7
		c0.8-1,1.3-2.3,1.3-3.7v-0.8C127.4,23.6,124.9,21.1,121.7,21.1z M112.7,25.1h9c0.9,0,1.6,0.7,1.6,1.6v0.8c0,0.9-0.7,1.6-1.6,1.6h-9
		V25.1z M123.4,35.6c0,0.9-0.7,1.6-1.6,1.6h-9v-4h9c0.9,0,1.6,0.7,1.6,1.6V35.6z"/>
	<path class="st0" d="M72.9,25.1H81c1.1,0,2-0.9,2-2s-0.9-2-2-2h-8.1c-4.8,0-8.6,3.9-8.6,8.6v3.1c0,4.8,3.9,8.6,8.6,8.6H83V30.7
		h-6.8c-1.1,0-2,0.9-2,2c0,1.1,0.9,2,2,2H79v2.7h-6.1c-2.5,0-4.6-2-4.6-4.6v-3.1C68.3,27.2,70.4,25.1,72.9,25.1z"/>
	<path class="st0" d="M95.5,21.1c-5.6,0-10.2,4.6-10.2,10.2s4.6,10.2,10.2,10.2s10.2-4.6,10.2-10.2S101.1,21.1,95.5,21.1z
		 M95.5,37.4c-3.4,0-6.1-2.7-6.1-6.1s2.7-6.1,6.1-6.1s6.1,2.7,6.1,6.1S98.8,37.4,95.5,37.4z"/>
	<path class="st0" d="M131.6,21.5c-0.8-0.8-2-0.9-2.9-0.1c-0.8,0.8-0.9,2-0.1,2.9l4.2,4.6c0.4,0.4,0.9,0.7,1.5,0.7
		c0.5,0,1-0.2,1.4-0.5c0.8-0.8,0.9-2,0.1-2.9L131.6,21.5z"/>
	<path class="st0" d="M148.5,21.7c-0.7-0.8-2-0.9-2.9-0.2l-8.5,7.5v10.5c0,1.1,0.9,2,2,2s2-0.9,2-2v-8.6l7.1-6.3
		C149.2,23.8,149.2,22.5,148.5,21.7z"/>
</g>
</svg>
