<?xml version="1.0" standalone="no"?><!DOCTYPE svg PUBLIC "-//W3C//DTD SVG 1.1//EN" "http://www.w3.org/Graphics/SVG/1.1/DTD/svg11.dtd"><svg t="1558172713156" class="icon" style="" viewBox="0 0 1024 1024" version="1.1" xmlns="http://www.w3.org/2000/svg" p-id="4680" xmlns:xlink="http://www.w3.org/1999/xlink" width="200" height="200"><defs><style type="text/css"></style></defs><path d="M104.247091 724.033874a61.84 61.84 0 1 0 120.369711-28.423141 61.84 61.84 0 1 0-120.369711 28.423141Z" fill="#4778C7" p-id="4681"></path><path d="M870.12 709.84m-61.84 0a61.84 61.84 0 1 0 123.68 0 61.84 61.84 0 1 0-123.68 0Z" fill="#4778C7" p-id="4682"></path><path d="M451.244039 139.406077a61.84 61.84 0 1 0 120.369711-28.423141 61.84 61.84 0 1 0-120.369711 28.423141Z" fill="#4778C7" p-id="4683"></path><path d="M108.79 600.99c14.12-1.86 24.12-14.74 22.26-28.86-2.16-16.39-3.2-33.19-3.2-49.88 0-78.54 23.5-154.09 68.03-218.4 43.5-62.87 103.9-111.01 174.7-139.04 13.19-5.25 19.69-20.2 14.43-33.5-5.25-13.19-20.2-19.68-33.5-14.43-80.29 31.85-148.83 86.27-198.1 157.59-50.51 72.97-77.2 158.63-77.2 247.78 0 18.86 1.24 37.93 3.61 56.48 1.65 12.98 12.78 22.47 25.56 22.47 1.25 0.1 2.38 0 3.41-0.21zM768.95 808.16c-70.5 63.49-161.72 98.43-256.75 98.43s-186.24-34.94-256.85-98.43c-10.61-9.48-26.9-8.66-36.38 1.96-9.48 10.61-8.66 26.9 1.96 36.38 80.09 71.94 183.46 111.62 291.27 111.62 107.71 0 211.19-39.68 291.28-111.62 10.61-9.48 11.44-25.77 1.96-36.38-9.59-10.62-25.87-11.44-36.49-1.96zM870.78 274.57c-49.37-71.33-117.81-125.75-198.1-157.59-13.2-5.26-28.24 1.23-33.5 14.43-5.26 13.19 1.24 28.24 14.43 33.5 70.81 28.03 131.21 76.17 174.71 139.04 44.52 64.32 68.02 139.87 68.02 218.4 0 14.12-0.72 28.24-2.27 42.16-1.54 14.12 8.66 26.9 22.78 28.44 0.93 0.11 1.86 0.11 2.78 0.11 12.98 0 24.12-9.79 25.56-22.98 1.75-15.77 2.58-31.85 2.58-47.73 0.22-89.16-26.48-174.81-76.99-247.78z" fill="#4778C7" p-id="4684"></path><path d="M329.94 438.9l168.2 84.1c4.95 2.47 9.89 4.95 14.84 4.95 4.95 0 9.89-2.47 14.84-4.95l168.2-84.1c7.42-4.95 12.37-12.37 12.37-19.79s-4.95-14.84-12.37-19.79l-168.2-84.1c-4.95-2.47-9.9-2.47-14.84-2.47-4.95 0-9.89 2.47-14.84 4.95l-170.68 79.16c-7.42 4.95-12.37 12.37-12.37 22.26 0.01 7.41 7.44 14.83 14.85 19.78z m353.73 44.53c-9.89 0-14.84 4.95-14.84 4.95l-153.36 74.21-153.37-74.22c-7.42-2.47-12.37-2.47-17.32-2.47-19.79-2.47-27.21 9.9-27.21 24.74 0 7.42 4.95 14.84 12.37 19.79l168.2 84.1c4.95 2.47 9.89 4.95 14.84 4.95 4.95 0 9.89-2.47 14.84-4.95l168.2-81.63c7.42-4.95 12.37-12.37 12.37-22.26 2.49-14.85-9.88-27.21-24.72-27.21z m0 89.04c-9.89 0-14.84 4.95-14.84 4.95l-153.36 74.21-153.37-74.21c-4.95-2.47-9.89-2.47-14.84-2.47-19.79-2.47-27.21 9.89-27.21 24.74 0 7.42 4.95 14.84 12.37 19.79l165.73 84.1c4.95 2.47 9.89 4.95 14.84 4.95 4.95 0 9.89-2.47 14.84-4.95l168.2-81.63c7.42-4.95 12.37-12.37 12.37-22.26 2.48-14.85-9.89-27.22-24.73-27.22z m0 0" fill="#0091FF" p-id="4685"></path></svg>