<?xml version="1.0" standalone="no"?><!DOCTYPE svg PUBLIC "-//W3C//DTD SVG 1.1//EN" "http://www.w3.org/Graphics/SVG/1.1/DTD/svg11.dtd"><svg t="1558172842319" class="icon" style="" viewBox="0 0 1024 1024" version="1.1" xmlns="http://www.w3.org/2000/svg" p-id="5166" xmlns:xlink="http://www.w3.org/1999/xlink" width="200" height="200"><defs><style type="text/css"></style></defs><path d="M513.1 532.7c-9.6 0-19.3-2.5-27.9-7.5l-141.1-81.5c-17.2-9.9-27.9-28.5-27.9-48.3v-163c0-19.9 10.7-38.4 27.9-48.3l141.1-81.5c17.2-9.9 38.6-9.9 55.8 0l141.1 81.5c17.2 9.9 27.9 28.5 27.9 48.3v163c0 19.9-10.7 38.4-27.9 48.3L541 525.3c-8.6 4.9-18.3 7.4-27.9 7.4z m0-387.5c-1 0-2 0.3-2.9 0.8l-141.1 81.5c-1.8 1-2.9 3-2.9 5v163c0 2.1 1.1 4 2.9 5L510.2 482c1.8 1 4 1 5.8 0l141.1-81.5c1.8-1 2.9-3 2.9-5v-163c0-2.1-1.1-4-2.9-5L516 146c-0.9-0.5-1.9-0.8-2.9-0.8z" fill="#4778c7" p-id="5167"></path><path d="M509.9 321.9l-100.7-53.2c-6.7-3.5-6.9-13.1-0.3-16.9l100.7-57.6c3-1.7 6.7-1.7 9.7 0.1l96.3 57.6c6.4 3.8 6.2 13.1-0.3 16.7L519 321.8c-2.8 1.6-6.2 1.6-9.1 0.1z" fill="#0091ff" p-id="5168"></path><path d="M286 929.1c-9.6 0-19.3-2.5-27.9-7.5L117 840.1c-17.3-9.9-28-28.4-28-48.2v-163c0-19.9 10.7-38.4 27.9-48.3L258 499.1c17.2-9.9 38.6-9.9 55.8 0L455 580.6c17.2 9.9 27.9 28.5 27.9 48.3v163c0 19.9-10.7 38.4-27.9 48.3l-141.1 81.5c-8.6 4.9-18.3 7.4-27.9 7.4z m0-387.5c-1 0-2 0.3-2.9 0.8L142 623.9c-1.8 1-2.9 3-2.9 5v163c0 2.1 1.1 4 2.9 5l141.1 81.5c1.8 1 4 1 5.8 0L430 796.9c1.8-1 2.9-3 2.9-5v-163c0-2.1-1.1-4-2.9-5l-141.1-81.5c-0.9-0.5-1.9-0.8-2.9-0.8z" fill="#4778c7" p-id="5169"></path><path d="M282.8 716.9l-100.7-53.2c-6.7-3.5-6.9-13.1-0.3-16.9l100.7-57.6c3-1.7 6.7-1.7 9.7 0.1l96.3 57.6c6.4 3.8 6.2 13.1-0.3 16.7l-96.3 53.2c-2.8 1.6-6.2 1.6-9.1 0.1z" fill="#0091ff" p-id="5170"></path><path d="M737.6 929.1c-9.6 0-19.3-2.5-27.9-7.5l-141.1-81.5c-17.2-9.9-27.9-28.5-27.9-48.3v-163c0-19.9 10.7-38.4 27.9-48.3L709.7 499c17.2-9.9 38.6-9.9 55.8 0l141.1 81.5c17.2 9.9 27.9 28.5 27.9 48.3v163c0 19.9-10.7 38.4-27.9 48.3l-141.1 81.5c-8.6 5-18.3 7.5-27.9 7.5z m0-387.5c-1 0-2 0.3-2.9 0.8l-141.1 81.5c-1.8 1-2.9 3-2.9 5v163c0 2.1 1.1 4 2.9 5l141.1 81.5c1.8 1 4 1 5.8 0l141.1-81.5c1.8-1 2.9-3 2.9-5v-163c0-2.1-1.1-4-2.9-5l-141.1-81.5c-0.9-0.5-1.9-0.8-2.9-0.8z" fill="#4778c7" p-id="5171"></path><path d="M735.3 716.9l-100.7-53.2c-6.7-3.5-6.9-13.1-0.3-16.9L735 589.3c3-1.7 6.7-1.7 9.7 0.1L841 647c6.4 3.8 6.2 13.1-0.3 16.7l-96.3 53.2c-2.8 1.5-6.3 1.5-9.1 0z" fill="#0091ff" p-id="5172"></path></svg>