<?xml version="1.0" standalone="no"?><!DOCTYPE svg PUBLIC "-//W3C//DTD SVG 1.1//EN" "http://www.w3.org/Graphics/SVG/1.1/DTD/svg11.dtd"><svg t="1558172860554" class="icon" style="" viewBox="0 0 1024 1024" version="1.1" xmlns="http://www.w3.org/2000/svg" p-id="5295" xmlns:xlink="http://www.w3.org/1999/xlink" width="200" height="200"><defs><style type="text/css"></style></defs><path d="M736.4 287.7m-160 0a160 160 0 1 0 320 0 160 160 0 1 0-320 0Z" fill="#0091FF" p-id="5296"></path><path d="M407.4 472.7h-238c-36.4 0-66-29.6-66-66v-238c0-36.4 29.6-66 66-66h238c36.4 0 66 29.6 66 66v238c0.1 36.4-29.5 66-66 66z m-238-320c-8.8 0-16 7.2-16 16v238c0 8.8 7.2 16 16 16h238c8.8 0 16-7.2 16-16v-238c0-8.8-7.2-16-16-16h-238zM407.4 920.8h-238c-36.4 0-66-29.6-66-66v-238c0-36.4 29.6-66 66-66h238c36.4 0 66 29.6 66 66v238c0.1 36.4-29.5 66-66 66z m-238-320.1c-8.8 0-16 7.2-16 16v238c0 8.8 7.2 16 16 16h238c8.8 0 16-7.2 16-16v-238c0-8.8-7.2-16-16-16h-238zM855.4 920.8h-238c-36.4 0-66-29.6-66-66v-238c0-36.4 29.6-66 66-66h238c36.4 0 66 29.6 66 66v238c0.1 36.4-29.6 66-66 66z m-238-320.1c-8.8 0-16 7.2-16 16v238c0 8.8 7.2 16 16 16h238c8.8 0 16-7.2 16-16v-238c0-8.8-7.2-16-16-16h-238zM736.4 472.8c-102 0-185-83-185-185s83-185 185-185 185 83 185 185-82.9 185-185 185z m0-320.1c-74.5 0-135 60.6-135 135s60.6 135 135 135 135-60.6 135-135-60.5-135-135-135z" fill="#4778c7" p-id="5297"></path></svg>