<?xml version="1.0" standalone="no"?><!DOCTYPE svg PUBLIC "-//W3C//DTD SVG 1.1//EN" "http://www.w3.org/Graphics/SVG/1.1/DTD/svg11.dtd"><svg t="1558172826697" class="icon" style="" viewBox="0 0 1024 1024" version="1.1" xmlns="http://www.w3.org/2000/svg" p-id="5041" xmlns:xlink="http://www.w3.org/1999/xlink" width="200" height="200"><defs><style type="text/css"></style></defs><path d="M929.9 839.4h-30.3V421.2c-0.2-65.9-53.6-119.2-119.5-119.5H600.9V242c-0.2-65.9-53.6-119.3-119.5-119.5H242.5c-65.9 0.2-119.3 53.6-119.5 119.5v597.3H93.1c-16.3-0.2-29.7 13-29.8 29.3v0.6c-0.1 16.3 13.1 29.7 29.4 29.9h836.6c16.3 0.1 29.7-13.1 29.9-29.4v-0.5c0.2-16.4-12.9-29.7-29.3-29.8zM242.5 331.1c0.1-16.3 13.6-29.5 29.9-29.3h179.7c16.3 0.2 29.4 13.6 29.3 29.9v0.5c-0.1 16.3-13.5 29.4-29.8 29.3H272.4c-16.7 0-29.8-13.2-29.8-29.8-0.1-0.3-0.1-0.4-0.1-0.6z m29.9 149.8h179.8c16.3 0.2 29.4 13.6 29.2 29.9v0.6c-0.2 16.3-13.5 29.4-29.8 29.3H272.4c-16.7 0-29.8-13.2-29.8-29.9-0.1-16.7 13-29.9 29.8-29.9z m179.2 238.9H272.4c-16.7 0-29.8-13.2-29.8-29.9v-0.6c0.2-16.3 13.6-29.4 29.8-29.2h179.8c16.3 0.2 29.4 13.5 29.3 29.8v0.6c-0.2 16.4-13.6 29.5-29.9 29.3z m388.2 119.6H600.9V361.5h179.2c32.9 0 59.7 26.8 59.7 59.7v418.2z m0 0" fill="#4472b7" p-id="5042"></path><path d="M750.2 480.9h-59.7c-16.3-0.1-29.7 13-29.9 29.3v0.5c-0.1 16.3 13.1 29.7 29.4 29.9h60.2c16.3 0.1 29.7-13 29.8-29.3v-0.5c0.2-16.2-12.9-29.6-29.1-29.8-0.2-0.1-0.5-0.1-0.7-0.1z m0 179.2h-59.7c-16.3-0.2-29.7 13-29.9 29.3v0.5c0 16.7 13.2 29.9 29.9 29.9h59.7c16.3 0.1 29.7-13 29.8-29.3v-0.5c0.2-16.2-12.8-29.6-29.1-29.8-0.2-0.1-0.4-0.1-0.7-0.1z m0 0" fill="#0091ff" p-id="5043"></path></svg>